# xmcd
#
# Track frame offsets: 
#        150
#        24635
#        47055
#        81932
#        112900
#        156365
#        176752
#        232882
#        260867
#        279427
#        308392
#        326672
#
# Disc length: 4699 seconds
#
# Revision: 5
# Processed by: cddbd v1.5.2PL0 Copyright (c) Steve Scherf et al.
# Submitted via: ExactAudioCopy v1.0b2
#
DISCID=9b12590c
DTITLE=Various Artist - Space Battleship Yamato Eternal Edition File No.9
DYEAR=2001
DGENRE=Soundtrack
TTITLE0=The Water Legend
TTITLE1=The Mythology of Aquarius
TTITLE2=The Galaxies Collide
TTITLE3=Great Deingil Empire
TTITLE4=Planet of Water Aquarius  - Queen of Aquarius 
TTITLE5=Yamato Sortie
TTITLE6=Space Battleship Yamato Memorial
TTITLE7=Space Battleship Yamato - Overture
TTITLE8=Ordeal, Launch, Showdown
TTITLE9=True Scarlet Scarf ~ Memories, Recollection, Iscandar
TTITLE10=Human Thought ~ Great love, Stasha, White Comet
TTITLE11=Great Love ~ Dessler Loneliness, Rival, From Yamato with Love
EXTD=YEAR: 2001.3.1
EXTT0=
EXTT1=
EXTT2=
EXTT3=
EXTT4=
EXTT5=
EXTT6=
EXTT7=
EXTT8=
EXTT9=
EXTT10=
EXTT11=
PLAYORDER=
